<?xml version="1.0" encoding="UTF-8" standalone="no"?>
<svg width="1792" height="1792" viewBox="0 0 1792 1792" xmlns="http://www.w3.org/2000/svg">
<path
   d="m 1774.3372,522.73326 c 0,29.96822 -10.674,55.44041 -32.0246,76.41855 l -828.06003,813.64769 -155.54874,152.839 c -21.35059,20.9802 -47.27575,31.4683 -77.77323,31.4683 -30.4998,0 -56.42498,-10.4881 -77.77555,-31.4683 L 447.60861,1412.7995 33.58213,1005.9776 C 12.231559,984.99752 1.5551107,959.52533 1.5551107,929.55712 c 0,-29.96822 10.6741083,-55.44239 32.0246793,-76.42053 L 189.12622,700.29752 c 21.34823,-20.97815 47.27341,-31.46623 77.77321,-31.46623 30.49981,0 56.42499,10.48808 77.77556,31.46623 L 680.9306,1031.8253 1431.2174,293.47564 c 21.3505,-20.97813 47.2757,-31.46622 77.7755,-31.46622 30.4975,0 56.4226,10.48809 77.7732,31.46622 l 155.5465,152.83909 c 21.3506,20.97815 32.0246,46.45033 32.0246,76.41853 z"
   style="fill:#ffffff;stroke-width:2.15558529" />
</svg>