<svg width="100" height="100" viewBox="0 0 100 100" fill="none" xmlns="http://www.w3.org/2000/svg"><path d="M17 8.995V6.992a5 5.007 0 0 0-10 0v2.003A3 3.004 0 0 0 4 12v7.01a3 3.004 0 0 0 3 3.004h10a3 3.004 0 0 0 3-3.004V12a3 3.004 0 0 0-3-3.005ZM9 6.992a3 3.004 0 0 1 6 0v2.003H9Zm9 12.018a1 1 0 0 1-1 1.001H7a1 1 0 0 1-1-1.001V12a1 1 0 0 1 1-1.002h10A1 1 0 0 1 18 12z" stroke="#999" fill="#999" style="stroke-width:1.00072;stroke:#e48312;stroke-opacity:1;fill:#e48312;fill-opacity:1" transform="translate(-7.06 -7.06)scale(4.75499)"/></svg>