<svg xmlns="http://www.w3.org/2000/svg" width="100" height="100" viewBox="0 0 100 100" fill="none">
  <path d="
    M7 15 
    a5 5 0 0 1 5 -5 
    h76
    a5 5 0 0 1 5 5 
    v60 
    a5 5 0 0 1 -5 5 
    H40 
    L15 90
    V80 
    H12 
    a5 5 0 0 1 -5 -5 
    V60 
    z"
    stroke="#999999" stroke-width="13" fill="none"/>

<g transform="translate(20,16) scale(2.4)">
<path d="M17,9V7A5,5,0,0,0,7,7V9a3,3,0,0,0-3,3v7a3,3,0,0,0,3,3H17a3,3,0,0,0,3-3V12A3,3,0,0,0,17,9ZM9,7a3,3,0,0,1,6,0V9H9Zm9,12a1,1,0,0,1-1,1H7a1,1,0,0,1-1-1V12a1,1,0,0,1,1-1H17a1,1,0,0,1,1,1Z" stroke="#999999" fill="#999999"/>
</g>
</svg>