<?xml version="1.0" encoding="UTF-8" standalone="no"?>
<svg
   id="Capa_2"
   data-name="Capa 2"
   version="1.1"
   viewBox="0 0 2732 2732"
   sodipodi:docname="fpvirtual_logo.svg"
   inkscape:version="1.4.2 (f4327f4, 2025-05-13)"
   xmlns:inkscape="http://www.inkscape.org/namespaces/inkscape"
   xmlns:sodipodi="http://sodipodi.sourceforge.net/DTD/sodipodi-0.dtd"
   xmlns="http://www.w3.org/2000/svg"
   xmlns:svg="http://www.w3.org/2000/svg">
  <sodipodi:namedview
     id="namedview44"
     pagecolor="#ffffff"
     bordercolor="#000000"
     borderopacity="0.25"
     inkscape:showpageshadow="2"
     inkscape:pageopacity="0.0"
     inkscape:pagecheckerboard="0"
     inkscape:deskcolor="#d1d1d1"
     inkscape:zoom="0.93338214"
     inkscape:cx="1339.2157"
     inkscape:cy="1243.3278"
     inkscape:window-width="2880"
     inkscape:window-height="1514"
     inkscape:window-x="-11"
     inkscape:window-y="-11"
     inkscape:window-maximized="1"
     inkscape:current-layer="g33" />
  <defs
     id="defs1">
    <style
       id="style1">
      .cls-1 {
        opacity: .22;
      }

      .cls-1, .cls-2, .cls-3, .cls-4, .cls-5, .cls-6, .cls-7 {
        stroke-width: 0px;
      }

      .cls-1, .cls-6 {
        fill: #333;
      }

      .cls-2 {
        fill: #fc0;
      }

      .cls-3 {
        fill: #f7931e;
      }

      .cls-4 {
        fill: #2a7ec4;
      }

      .cls-5 {
        fill: #ed1c24;
      }

      .cls-7 {
        fill: #2975c1;
      }

      .cls-8 {
        fill: #fff;
        stroke: #fff;
        stroke-miterlimit: 10;
        stroke-width: .5px;
      }
    </style>
  </defs>
  <g
     id="g33">
    <polygon
       class="cls-2"
       points="1420.88 1545.98 1330.6 1512.47 1330.6 1399.39 1420.88 1432.89 1420.88 1545.98"
       id="polygon4"
       inkscape:label="polygon4-forth" />
    <polygon
       class="cls-2"
       points="1827.14 1463.1 1420.88 1546.18 1420.88 1433.1 1827.14 1350.02 1827.14 1463.1"
       id="polygon8"
       inkscape:label="polygon8-forth" />
    <polygon
       class="cls-2"
       points="1859.64 1418.76 1827.14 1425.41 1827.14 1387.71 1859.64 1381.06 1859.64 1418.76"
       id="polygon9"
       inkscape:label="polygon9-forth" />
    <polygon
       class="cls-3"
       points="1420.88 1432.89 1330.6 1399.39 1330.6 1286.3 1420.88 1319.81 1420.88 1432.89"
       id="polygon3"
       inkscape:label="polygon3-third" />
    <polygon
       class="cls-3"
       points="1827.14 1350.02 1420.88 1433.1 1420.88 1320.01 1827.14 1236.93 1827.14 1350.02"
       id="polygon7"
       inkscape:label="polygon7-third" />
    <polygon
       class="cls-3"
       points="1859.64 1267.98 1827.14 1274.62 1827.14 1236.93 1859.64 1230.28 1859.64 1267.98"
       id="polygon18"
       inkscape:label="polygon18-third" />
    <polygon
       class="cls-3"
       points="1892.14 1336.72 1859.64 1343.37 1859.64 1305.67 1892.14 1299.03 1892.14 1336.72"
       id="polygon19"
       inkscape:label="polygon19-third" />
    <polygon
       class="cls-5"
       points="1420.88 1319.81 1330.6 1286.3 1330.6 1173.22 1420.88 1206.72 1420.88 1319.81"
       id="polygon2"
       inkscape:label="polygon2-sec" />
    <polygon
       class="cls-5"
       points="1827.14 1236.93 1420.88 1320.01 1420.88 1206.93 1827.14 1123.84 1827.14 1236.93"
       id="polygon6"
       inkscape:label="polygon6-sec" />
    <polygon
       class="cls-5"
       points="1859.64 1192.73 1827.14 1199.38 1827.14 1161.68 1859.64 1155.04 1859.64 1192.73"
       id="polygon25"
       inkscape:label="polygon25-sec" />
    <polygon
       class="cls-7"
       points="1827.14 1123.84 1420.88 1206.93 1420.88 1093.84 1827.14 1010.76 1827.14 1123.84"
       id="polygon5"
       inkscape:label="polygon5-main" />
    <polygon
       class="cls-7"
       points="1420.88 1206.72 1330.6 1173.22 1330.6 1060.13 1420.88 1093.64 1420.88 1206.72"
       id="polygon1"
       inkscape:label="polygon1-main" />
    <polygon
       class="cls-7"
       points="1892.14 1072.86 1859.64 1079.5 1859.64 1041.81 1892.14 1035.16 1892.14 1072.86"
       id="polygon32"
       inkscape:label="polygon32-main" />
    <polygon
       class="cls-7"
       points="1859.64 1117.2 1827.14 1123.84 1827.14 1086.15 1859.64 1079.5 1859.64 1117.2"
       id="polygon26"
       inkscape:label="polygon26-main" />
    <polygon
       class="cls-8"
       points="1827.14 1274.62 1794.64 1281.27 1794.64 1243.58 1827.14 1236.93 1827.14 1274.62"
       id="polygon20"
       inkscape:label="polygon20-white" />
    <polygon
       class="cls-8"
       points="1762.13 1250.22 1729.63 1256.87 1729.63 1219.17 1762.13 1212.53 1762.13 1250.22"
       id="polygon21"
       inkscape:label="polygon21-white" />
    <polygon
       class="cls-8"
       points="1762.13 1363.31 1729.63 1369.96 1729.63 1332.26 1762.13 1325.61 1762.13 1363.31"
       id="polygon22"
       inkscape:label="polygon22-white" />
    <polygon
       class="cls-8"
       points="1794.64 1469.98 1762.13 1476.63 1762.13 1438.7 1794.64 1432.05 1794.64 1469.98"
       id="polygon10"
       inkscape:label="polygon10-white" />
    <polygon
       class="cls-8"
       points="1827.24 1463.32 1794.64 1469.98 1794.64 1432.05 1827.24 1425.39 1827.24 1463.32"
       id="polygon11"
       inkscape:label="polygon11-white" />
    <polygon
       class="cls-8"
       points="1827.14 1425.41 1794.64 1432.05 1794.64 1394.36 1827.14 1387.71 1827.14 1425.41"
       id="polygon12"
       inkscape:label="polygon12-white" />
    <polygon
       class="cls-8"
       points="1794.64 1394.36 1762.13 1401 1762.13 1363.31 1794.64 1356.66 1794.64 1394.36"
       id="polygon13"
       inkscape:label="polygon13-white" />
    <polygon
       class="cls-8"
       points="1762.13 1401 1729.63 1407.65 1729.63 1369.96 1762.13 1363.31 1762.13 1401"
       id="polygon14"
       inkscape:label="polygon14-white" />
    <polygon
       class="cls-8"
       points="1827.71 1349.93 1794.64 1356.66 1794.64 1318.46 1827.71 1311.73 1827.71 1349.93"
       id="polygon15"
       inkscape:label="polygon15-white" />
    <polygon
       class="cls-8"
       points="1828.23 1313.15 1794.64 1319.8 1794.64 1281.22 1828.23 1274.35 1828.23 1313.15"
       id="polygon16"
       inkscape:label="polygon16-white" />
    <polygon
       class="cls-8"
       points="1794.64 1318.97 1762.13 1325.61 1762.13 1287.92 1794.64 1281.27 1794.64 1318.97"
       id="polygon17"
       inkscape:label="polygon17-white" />
    <polygon
       class="cls-8"
       points="1827.14 1199.23 1794.64 1205.88 1794.64 1168.19 1827.14 1161.54 1827.14 1199.23"
       id="polygon23"
       inkscape:label="polygon23-white" />
    <polygon
       class="cls-8"
       points="1794.64 1205.88 1762.13 1212.53 1762.13 1174.83 1794.64 1168.19 1794.64 1205.88"
       id="polygon24"
       inkscape:label="polygon24-white" />
    <polygon
       class="cls-8"
       points="1828.07 1085.79 1794.64 1092.8 1794.64 1055.1 1828.07 1048.1 1828.07 1085.79"
       id="polygon27"
       inkscape:label="polygon27-white" />
    <polygon
       class="cls-8"
       points="1794.64 1130.49 1762.13 1137.14 1762.13 1099.44 1794.64 1092.8 1794.64 1130.49"
       id="polygon28"
       inkscape:label="polygon28-white" />
    <polygon
       class="cls-8"
       points="1762.13 1137.14 1729.63 1143.78 1729.63 1106.09 1762.13 1099.44 1762.13 1137.14"
       id="polygon29"
       inkscape:label="polygon29-white" />
    <polygon
       class="cls-8"
       points="1794.64 1168.19 1762.13 1174.83 1762.13 1137.14 1794.64 1130.49 1794.64 1168.19"
       id="polygon30"
       inkscape:label="polygon30-white" />
    <polygon
       class="cls-8"
       points="1794.64 1055.02 1762.13 1061.75 1762.13 1023.73 1794.64 1017.31 1794.64 1055.02"
       id="polygon31"
       inkscape:label="polygon31-white" />
    <polygon
       class="cls-1"
       points="1330.6 1059.93 1420.88 1093.64 1420.88 1546.08 1330.6 1512.37 1330.6 1059.93"
       id="polygon33"
       inkscape:label="polygon33-shadow" />
  </g>
  <g
     id="g44">
    <g
       id="g34">
      <path
         class="cls-4"
         d="M964.72,1329.43h-143.47v73.73h87.68v55.79h-87.68v129.52h-55.79v-314.84h199.26v55.79Z"
         id="path33"
         inkscape:label="path33-main" />
      <path
         class="cls-4"
         d="M1199.4,1399.57c0,17.27-5.18,31.22-15.54,41.85-10.9,11.69-26.17,17.54-45.83,17.54h-82.1v129.52h-55.79v-314.84h140.68c19.93,0,35.07,6.91,45.43,20.72,8.77,11.43,13.15,25.24,13.15,41.45v63.76ZM1143.61,1382.84v-33.48c0-13.28-6.25-19.93-18.73-19.93h-68.95v73.73h68.95c13.01,0,19.26-6.78,18.73-20.33Z"
         id="path34"
         inkscape:label="path34-main" />
    </g>
    <g
       id="g43">
      <path
         class="cls-6"
         d="M978.23,1315.58h-143.47v73.73h87.68v55.79h-87.68v129.52h-55.79v-314.84h199.26v55.79Z"
         id="path35" />
      <path
         class="cls-6"
         d="M1212.91,1385.72c0,17.27-5.18,31.22-15.54,41.85-10.9,11.69-26.17,17.54-45.83,17.54h-82.1v129.52h-55.79v-314.84h140.68c19.93,0,35.07,6.91,45.43,20.72,8.77,11.43,13.15,25.24,13.15,41.45v63.76ZM1157.12,1368.98v-33.48c0-13.28-6.25-19.93-18.73-19.93h-68.95v73.73h68.95c13.01,0,19.26-6.78,18.73-20.33Z"
         id="path36" />
      <path
         class="cls-6"
         d="M1202.52,1482.56h21.92l17.76,47.62c3.29,9.25,6.25,18.53,9.23,27.82h.75c2.98-9.29,5.7-18.56,9.11-27.82l17.76-47.62h20.77l-35.94,92.06h-24.66l-36.71-92.06Z"
         id="path37" />
      <path
         class="cls-6"
         d="M1356.93,1499.73h-39.77v-17.17h61.45v92.06h-21.68v-74.89ZM1350.95,1451.31c0-8.64,6.49-14.61,15.4-14.61s15.4,5.97,15.4,14.61-6.49,14.47-15.4,14.47-15.4-5.72-15.4-14.47Z"
         id="path38" />
      <path
         class="cls-6"
         d="M1438.22,1482.56h17.89l1.84,20.94h.51c9.35-15.01,23.32-23.19,39.16-23.19,7.44,0,12.44,1.14,17.93,3.75l-4.59,18.33c-6.1-1.92-9.68-2.86-16.66-2.86-12.58,0-24.97,6.45-34.39,24.33v50.76h-21.68v-92.06Z"
         id="path39" />
      <path
         class="cls-6"
         d="M1561.91,1537.62v-37.88h-24.63v-16.16l25.53-1.01,2.82-28.83h17.96v28.83h41.86v17.17h-41.86v37.79c0,15.21,5.71,22.06,21.27,22.06,7.68,0,14.01-1.55,20.02-3.71l4.2,15.77c-8.25,2.72-17.54,5.23-29.45,5.23-28.13,0-37.72-15.8-37.72-39.26Z"
         id="path40" />
      <path
         class="cls-6"
         d="M1651.78,1539.58v-57.02h21.68v54.2c0,14.65,4.62,21.52,17.21,21.52,8.64,0,14.88-3.64,23.07-13.59v-62.13h21.68v92.06h-17.82l-1.66-14.62h-.75c-8.7,10.06-18.91,16.87-32.62,16.87-21.35,0-30.8-13.57-30.8-37.29Z"
         id="path41" />
      <path
         class="cls-6"
         d="M1764.46,1549.91c0-20.64,18.16-30.92,63.62-34.11-.77-10.31-6.9-18.05-21.91-18.05-10.36,0-20.61,4.52-30.08,9.77l-8.04-14.35c11.16-6.69,26.25-12.85,42.12-12.85,25.55,0,39.59,14.19,39.59,39.83v54.48h-17.82l-1.66-11.41h-.63c-9.66,7.46-22.02,13.66-34.36,13.66-17.95,0-30.84-11-30.84-26.97ZM1828.08,1548.69v-19.35c-33.07,2.17-42.61,8.96-42.61,18.9,0,8.11,7.17,11.61,16.29,11.61s17.82-4.32,26.32-11.16Z"
         id="path42" />
      <path
         class="cls-6"
         d="M1905.97,1541.11v-81.68h-30.73v-17.17h52.41v99.97c0,12.29,7.26,16.96,16.55,16.96,4.77,0,9.84-1.11,15.75-3.57l5.04,16.02c-9.05,3.36-15.33,5.23-26.09,5.23-21.49,0-32.93-13.17-32.93-35.76Z"
         id="path43" />
    </g>
  </g>
</svg>
